<?xml version="1.0" standalone="no"?><!DOCTYPE svg PUBLIC "-//W3C//DTD SVG 1.1//EN" "http://www.w3.org/Graphics/SVG/1.1/DTD/svg11.dtd"><svg t="1699861953814" class="icon" viewBox="0 0 1024 1024" version="1.1" xmlns="http://www.w3.org/2000/svg" p-id="1139" xmlns:xlink="http://www.w3.org/1999/xlink" width="200" height="200"><path d="M851.2 912.2816h-177.4592a57.7024 57.7024 0 0 1-57.7024-57.6512V484.0448h292.8128v370.5856a57.6512 57.6512 0 0 1-57.6512 57.6512z" fill="#F1DFCF" p-id="1140"></path><path d="M851.2 948.1216h-177.4592a93.6448 93.6448 0 0 1-93.5424-93.4912V484.0448a35.84 35.84 0 0 1 35.84-35.84h292.8128a35.84 35.84 0 0 1 35.84 35.84v370.5856a93.5936 93.5936 0 0 1-93.4912 93.4912z m-199.3216-428.2368v334.7456a21.8624 21.8624 0 0 0 21.8624 21.8112h177.4592a21.8112 21.8112 0 0 0 21.8112-21.8112v-334.7456z" fill="#2B3248" p-id="1141"></path><path d="M444.7744 912.2816H175.7696a57.6512 57.6512 0 0 1-57.6512-57.6512v-231.68h384.3072v231.68a57.6512 57.6512 0 0 1-57.6512 57.6512z" fill="#B3DFE0" p-id="1142"></path><path d="M444.7744 948.1216H175.7696a93.5936 93.5936 0 0 1-93.4912-93.4912v-231.68a35.84 35.84 0 0 1 35.84-35.84h384.3072a35.84 35.84 0 0 1 35.84 35.84v231.68a93.5936 93.5936 0 0 1-93.4912 93.4912z m-290.816-289.3312v195.84a21.8112 21.8112 0 0 0 21.8112 21.8112h269.0048a21.8112 21.8112 0 0 0 21.8112-21.8112v-195.84z" fill="#2B3248" p-id="1143"></path><path d="M166.3488 343.9616h290.2016v278.9888H166.3488z" fill="#FEDAAF" p-id="1144"></path><path d="M456.5504 658.7904H166.3488a35.84 35.84 0 0 1-35.84-35.84V343.9616a35.84 35.84 0 0 1 35.84-35.84h290.2016a35.84 35.84 0 0 1 35.84 35.84v278.9888a35.84 35.84 0 0 1-35.84 35.84z m-254.3616-71.68h218.5216V379.8016H202.1888z" fill="#2B3248" p-id="1145"></path><path d="M399.0528 343.9616H223.8976V121.1904a32.6656 32.6656 0 0 1 32.6656-32.6656 142.4896 142.4896 0 0 1 142.4896 142.4896z" fill="#F2AC90" p-id="1146"></path><path d="M399.0528 379.8016H223.8976a35.84 35.84 0 0 1-35.84-35.84V121.1904a68.5568 68.5568 0 0 1 68.5056-68.5056 178.4832 178.4832 0 0 1 178.3296 178.3296v112.9472a35.84 35.84 0 0 1-35.84 35.84z m-139.3152-71.68h103.4752V231.0144A106.752 106.752 0 0 0 259.7376 124.416zM250.0096 536.2688a20.48 20.48 0 0 1-20.48-20.48V442.0096a20.48 20.48 0 0 1 40.96 0v73.7792a20.48 20.48 0 0 1-20.48 20.48zM204.288 827.5456a20.48 20.48 0 0 1-20.48-20.48v-84.0192a20.48 20.48 0 0 1 40.96 0v84.0192a20.48 20.48 0 0 1-20.48 20.48zM701.0304 777.8816a20.48 20.48 0 0 1-20.48-20.48v-78.8992a20.48 20.48 0 0 1 40.96 0v78.8992a20.48 20.48 0 0 1-20.48 20.48z" fill="#2B3248" p-id="1147"></path></svg>